#!OML:ASF E:\Steps\Project 1\Capture day 1\Session 2\Subject.ASF
:FULLY-SPECIFIED
:DEGREES
251
root 10.1514 13.0252 10.1528 -145.631 -20.1318 -183.806
lowerback -7.46451 1.46489 -5.54192
upperback -1.26403 2.33815 -2.0956
thorax 2.73715 1.06957 1.16167
lowerneck -8.76807 2.141 5.37748
upperneck -2.75495 2.1443 -2.3297
head 0.712059 0.904718 -1.57761
rclavicle 2.29099e-014 6.4605e-015
rhumerus -25.8239 18.1119 -88.1435
rradius 66.928
rwrist -3.71337
rhand -13.7197 -50.1412
rfingers 7.12502
rthumb 12.3994 -79.7535
lclavicle 2.29099e-014 6.4605e-015
lhumerus -34.2077 -24.5445 81.3481
lradius 60.3752
lwrist 0.245195
lhand -27.9409 -18.3483
lfingers 7.12502
lthumb -1.32885 11.6274
rfemur -72.8911 -3.19829 26.0169
rtibia 84.2535
rfoot -47.0702 -18.095
rtoes -36.9983
lfemur -78.1363 -10.8256 -16.6909
ltibia 82.6049
lfoot -24.2338 -15.0816
ltoes 20.4553
252
root 10.1616 13.1807 10.0999 -146.295 -21.3334 -184.037
lowerback -7.38056 1.75688 -5.68127
upperback -1.30314 2.73164 -2.08726
thorax 2.61928 1.2688 1.27931
lowerneck -8.4989 2.75989 5.55349
upperneck -3.17948 2.96068 -2.62686
head 0.573657 1.30063 -1.67807
rclavicle -5.23798e-014 -7.25564e-015
rhumerus -25.3799 20.2962 -87.378
rradius 68.5334
rwrist -4.14517
rhand -14.5126 -49.9898
rfingers 7.12502
rthumb 11.6348 -79.6468
lclavicle -5.23798e-014 -7.25564e-015
lhumerus -34.9315 -26.6653 81.7835
lradius 62.0517
lwrist -1.1864
lhand -27.5757 -18.6753
lfingers 7.12502
lthumb -0.976163 11.3022
rfemur -70.9862 -4.29027 26.2915
rtibia 82.7891
rfoot -45.9282 -18.5241
rtoes -37.8302
lfemur -76.1866 -11.387 -16.699
ltibia 80.8731
lfoot -23.0065 -15.242
ltoes 22.5809
253
root 10.1753 13.3485 10.0455 -146.636 -22.4693 -184.099
lowerback -7.81744 2.07231 -5.8422
upperback -1.50755 3.17843 -2.04432
thorax 2.61074 1.48959 1.46529
lowerneck -7.96911 3.41459 5.66705
upperneck -3.71398 3.84778 -2.91385
head 0.361774 1.73538 -1.76822
rclavicle -9.93923e-015 -2.38542e-014
rhumerus -24.9683 22.9287 -86.4658
rradius 69.9007
rwrist -5.03002
rhand -16.979 -48.8843
rfingers 7.12502
rthumb 9.25556 -78.6612
lclavicle -9.93923e-015 -2.38542e-014
lhumerus -35.7477 -28.6335 82.2502
lradius 63.6116
lwrist -2.16195
lhand -27.536 -19.0342
lfingers 7.12502
lthumb -0.937746 10.9435
rfemur -69.4506 -5.18227 26.6974
rtibia 81.2202
rfoot -44.5724 -18.9264
rtoes -38.4811
lfemur -74.7043 -11.633 -16.5659
ltibia 79.0653
lfoot -21.3801 -15.139
ltoes 24.5643
254
root 10.1861 13.5361 9.98106 -146.922 -23.5858 -183.99
lowerback -8.53579 2.46407 -5.92421
upperback -1.76799 3.73477 -2.0109
thorax 2.69412 1.76132 1.6235
lowerneck -7.35084 4.03859 5.73226
upperneck -4.26706 4.70487 -3.16427
head 0.129505 2.15889 -1.84651
rclavicle 1.8487e-014 3.83654e-014
rhumerus -24.7533 25.0413 -85.3953
rradius 71.2931
rwrist -5.52057
rhand -9.35479 -51.5525
rfingers 7.12502
rthumb 16.6049 -80.8621
lclavicle 1.8487e-014 3.83654e-014
lhumerus -36.4867 -30.6947 82.6953
lradius 64.9077
lwrist -2.79322
lhand -28.1196 -19.1454
lfingers 7.12502
lthumb -1.50142 10.8291
rfemur -67.7498 -5.9604 27.1521
rtibia 79.0428
rfoot -42.9404 -19.0032
rtoes -38.4058
lfemur -73.3013 -11.6867 -16.2622
ltibia 77.1038
lfoot -19.3735 -15.1918
ltoes 25.7157
255
root 10.1935 13.7441 9.91622 -147.159 -24.9814 -183.759
lowerback -9.32022 2.82624 -5.77209
upperback -2.0803 4.22809 -1.92368
thorax 2.77356 2.0031 1.71114
lowerneck -6.75519 4.55502 5.69993
upperneck -4.8087 5.42377 -3.35013
head -0.103665 2.51645 -1.89695
rclavicle 5.55603e-014 -5.04913e-014
rhumerus -24.7337 26.6325 -84.2548
rradius 72.6089
rwrist -5.90002
rhand -17.0783 -47.0863
rfingers 7.12502
rthumb 9.15983 -76.8673
lclavicle 5.55603e-014 -5.04913e-014
lhumerus -37.0153 -32.5991 83.1174
lradius 65.8207
lwrist -3.17703
lhand -28.461 -19.6191
lfingers 7.12502
lthumb -1.83117 10.3528
rfemur -65.8756 -6.83854 27.7103
rtibia 76.2705
rfoot -40.8051 -18.4851
rtoes -38.5902
lfemur -72.0409 -11.6987 -15.7893
ltibia 75.1103
lfoot -17.1959 -15.3233
ltoes 25.6004
256
root 10.1971 13.975 9.85313 -147.394 -26.7064 -183.713
lowerback -9.86769 3.14952 -5.56116
upperback -2.48063 4.63433 -1.89519
thorax 2.64463 2.20641 1.68511
lowerneck -6.0432 4.97405 5.56547
upperneck -5.37297 6.02745 -3.47537
head -0.3727 2.82161 -1.92259
rclavicle 4.36332e-014 -1.23246e-014
rhumerus -24.6566 28.3047 -83.1191
rradius 73.4713
rwrist -7.19105
rhand -10.7077 -49.713
rfingers 7.12502
rthumb 15.302 -79.1269
lclavicle 4.36332e-014 -1.23246e-014
lhumerus -37.608 -34.4213 83.6341
lradius 66.5706
lwrist -3.27379
lhand -28.0627 -20.7611
lfingers 7.12502
lthumb -1.44649 9.21377
rfemur -64.3734 -8.05556 28.2143
rtibia 74.1459
rfoot -38.6293 -18.2459
rtoes -39.1593
lfemur -70.5657 -11.9164 -15.4875
ltibia 72.8627
lfoot -14.6486 -15.5412
ltoes 25.5164
257
root 10.1976 14.2322 9.77758 -147.689 -28.4152 -183.739
lowerback -10.338 3.46518 -5.51851
upperback -2.94094 5.03059 -1.91647
thorax 2.40143 2.40431 1.69423
lowerneck -5.15077 5.39401 5.34285
upperneck -6.00825 6.6458 -3.56499
head -0.697953 3.13883 -1.93536
rclavicle 4.00551e-014 1.94809e-014
rhumerus -25.171 28.9953 -82.3243
rradius 74.1644
rwrist -7.9865
rhand -8.02797 -49.3519
rfingers 7.12502
rthumb 17.8819 -78.5498
lclavicle 4.00551e-014 1.94809e-014
lhumerus -38.3831 -36.0767 84.1899
lradius 67.2903
lwrist -2.96021
lhand -28.6509 -20.5503
lfingers 7.12502
lthumb -2.01453 9.41993
rfemur -62.3705 -9.24362 28.5511
rtibia 71.3282
rfoot -35.9739 -18.0306
rtoes -38.9894
lfemur -68.687 -12.1245 -15.2823
ltibia 70.1102
lfoot -12.0755 -15.0968
ltoes 22.6779
258
root 10.1902 14.5123 9.69522 -147.932 -30.1339 -183.548
lowerback -11.4471 3.69056 -5.44247
upperback -3.17925 5.35895 -1.80973
thorax 2.7346 2.54985 1.86881
lowerneck -4.53727 5.74099 5.1884
upperneck -6.46458 7.14539 -3.63279
head -0.925368 3.39481 -1.95079
rclavicle -5.96354e-016 1.82882e-014
rhumerus -25.2541 29.4962 -81.3977
rradius 74.4221
rwrist -8.23544
rhand -9.82152 -47.1759
rfingers 7.12502
rthumb 16.1555 -76.5226
lclavicle -5.96354e-016 1.82882e-014
lhumerus -38.6595 -37.1206 84.549
lradius 67.7789
lwrist -2.51398
lhand -28.7604 -21.2919
lfingers 7.12502
lthumb -2.12036 8.67735
rfemur -60.3281 -10.391 29.0883
rtibia 68.2487
rfoot -32.8 -18.1026
rtoes -39.7033
lfemur -66.8371 -12.1448 -14.8779
ltibia 66.965
lfoot -9.1794 -14.3434
ltoes 19.1482
259
root 10.1732 14.8167 9.60949 -148.328 -31.966 -183.094
lowerback -12.9506 3.96331 -5.07481
upperback -3.14254 5.76026 -1.65762
thorax 3.58798 2.71747 1.99391
lowerneck -4.37451 5.9337 5.08855
upperneck -6.66303 7.41483 -3.61332
head -1.008 3.53181 -1.93316
rclavicle 9.69075e-014 -4.77083e-014
rhumerus -24.9409 29.5034 -80.3534
rradius 74.3098
rwrist -8.5626
rhand -8.79151 -45.3451
rfingers 7.12502
rthumb 17.1471 -74.6085
lclavicle 9.69075e-014 -4.77083e-014
lhumerus -38.3046 -37.9949 84.7014
lradius 68.0234
lwrist -2.11882
lhand -29.076 -21.2616
lfingers 7.12502
lthumb -2.42511 8.70439
rfemur -58.0024 -11.5433 29.8105
rtibia 64.5273
rfoot -28.8948 -18.3282
rtoes -42.3588
lfemur -64.8659 -11.9828 -14.2808
ltibia 63.5357
lfoot -5.63022 -13.8606
ltoes 19.1463
260
root 10.1608 15.1506 9.51336 -148.848 -34.0185 -182.569
lowerback -14.2847 4.15908 -4.71536
upperback -3.09515 6.0334 -1.43583
thorax 4.35937 2.82481 2.1789
lowerneck -4.24336 6.14503 4.82282
upperneck -6.84114 7.71464 -3.55343
head -1.0857 3.68778 -1.87303
rclavicle 1.08338e-014 -1.47101e-014
rhumerus -24.7699 29.153 -79.4983
rradius 74.0369
rwrist -9.16606
rhand -6.31798 -45.5212
rfingers 7.12502
rthumb 19.5267 -74.5607
lclavicle 1.08338e-014 -1.47101e-014
lhumerus -37.8098 -38.6418 84.7983
lradius 68.1722
lwrist -1.6675
lhand -29.2592 -18.7494
lfingers 7.12502
lthumb -2.60205 11.2144
rfemur -55.4169 -12.5991 30.452
rtibia 60.4049
rfoot -24.7926 -17.7335
rtoes -43.8876
lfemur -62.6723 -11.8135 -13.514
ltibia 59.707
lfoot -1.60274 -13.3358
ltoes 19.9655
